<svg xmlns="http://www.w3.org/2000/svg" width="24.653" height="43" viewBox="0 0 24.653 43"><g transform="translate(-0.196 -0.231)"><g transform="translate(427.051 763)" fill="#4285f4" stroke-linecap="round" stroke-linejoin="round"><path d="M -414.517822265625 -720.5234985351563 C -414.5259094238281 -720.5327758789063 -414.5370483398438 -720.5472412109375 -414.5504150390625 -720.5686645507813 C -414.7821044921875 -721.3611450195313 -415.0061645507813 -722.2050170898438 -415.242919921875 -723.0966796875 C -416.0422973632813 -726.1076049804688 -417.0372009277344 -729.8547973632813 -419.1383361816406 -734.6113891601563 C -420.1291809082031 -736.8544311523438 -421.2430725097656 -738.6637573242188 -422.3202819824219 -740.4135131835938 C -424.2951049804688 -743.6212768554688 -426.0007934570313 -746.3917236328125 -426.1052551269531 -750.6973266601563 C -426.1029052734375 -753.8509521484375 -424.8219909667969 -756.7591552734375 -422.4978942871094 -758.8875732421875 C -420.3250122070313 -760.8775024414063 -417.4213562011719 -762.018798828125 -414.5314025878906 -762.018798828125 C -411.6881103515625 -762.018798828125 -408.7857971191406 -760.8297119140625 -406.5686340332031 -758.7564697265625 C -404.2374267578125 -756.5765991210938 -402.9535827636719 -753.7113037109375 -402.9535827636719 -750.6883544921875 L -402.9535827636719 -750.6829833984375 L -402.9534912109375 -750.6776123046875 C -402.8907165527344 -746.3048706054688 -404.634033203125 -743.4971313476563 -406.6526489257813 -740.2459716796875 C -407.7392883300781 -738.495849609375 -408.8629455566406 -736.6861572265625 -409.8493957519531 -734.445556640625 C -412.2665405273438 -728.9548950195313 -413.6192626953125 -723.8146362304688 -414.2693176269531 -721.3442993164063 C -414.3506164550781 -721.0354614257813 -414.4229736328125 -720.7605590820313 -414.4834289550781 -720.5384521484375 C -414.4955139160156 -720.5316162109375 -414.5078125 -720.5267333984375 -414.517822265625 -720.5234985351563 Z" stroke="none"/><path d="M -414.5217895507813 -723.3034057617188 C -413.7602844238281 -726.0806274414063 -412.4954223632813 -730.29638671875 -410.5357971191406 -734.747802734375 C -409.5280456542969 -737.0368041992188 -408.3389282226563 -738.9519653320313 -407.2898254394531 -740.6416015625 C -405.2527770996094 -743.9224243164063 -403.6437683105469 -746.5138549804688 -403.7034301757813 -750.6668090820313 C -403.7035217285156 -750.6740112304688 -403.7035827636719 -750.68115234375 -403.7035827636719 -750.6883544921875 C -403.7035827636719 -753.5014038085938 -404.9030151367188 -756.1721801757813 -407.0809020996094 -758.2086791992188 C -409.16064453125 -760.1534423828125 -411.8762512207031 -761.268798828125 -414.5314025878906 -761.268798828125 C -417.236083984375 -761.268798828125 -419.9551086425781 -760.1992797851563 -421.9913330078125 -758.33447265625 C -424.1562194824219 -756.3518676757813 -425.3504333496094 -753.643310546875 -425.355224609375 -750.7061157226563 C -425.2534790039063 -746.6088256835938 -423.6768798828125 -744.0476684570313 -421.6816101074219 -740.8067016601563 C -420.5912475585938 -739.0355834960938 -419.4637451171875 -737.2041625976563 -418.4522705078125 -734.9144287109375 C -416.3307800292969 -730.1116943359375 -415.3272705078125 -726.3370971679688 -414.5217895507813 -723.3034057617188 M -414.5270690917969 -719.7688598632813 C -414.5285034179688 -719.7688598632813 -414.5299682617188 -719.7688598632813 -414.5314025878906 -719.7688598632813 C -414.7606201171875 -719.7705688476563 -415.0368041992188 -719.8674926757813 -415.2467651367188 -720.2779541015625 C -416.2828979492188 -723.7987670898438 -417.1112976074219 -728.1663818359375 -419.8243713378906 -734.308349609375 C -422.6500854492188 -740.7050170898438 -426.6920166015625 -743.8151245117188 -426.8552551269531 -750.6883544921875 C -426.8552551269531 -757.920654296875 -420.6943054199219 -762.768798828125 -414.5314025878906 -762.768798828125 C -408.3684692382813 -762.768798828125 -402.2035827636719 -757.5569458007813 -402.2035827636719 -750.6883544921875 C -402.1037292480469 -743.73583984375 -406.3198852539063 -740.60107421875 -409.1629638671875 -734.1433715820313 C -411.9402465820313 -727.8346557617188 -413.3017883300781 -721.9797973632813 -413.8025207519531 -720.186279296875 C -413.9890441894531 -719.877685546875 -414.3256225585938 -719.7688598632813 -414.5270690917969 -719.7688598632813 Z" stroke="none" fill="#3a77dd"/></g><circle cx="4.479" cy="4.479" r="4.479" transform="translate(8.04 8.034)" fill="#012856"/></g></svg>